<svg width="286" height="72" viewBox="0 0 286 72" class="css-1j8o68f"><defs id="SvgjsDefs3481"></defs><g id="SvgjsG3482" featurekey="symbolFeature-0" transform="matrix(-0.08255707690974756,0,0,-0.08255707690974756,74.03718682460581,77.28498570706532)" fill="#8b104e"><g xmlns="http://www.w3.org/2000/svg"><g><path d="M371,409c-30.6,0-55.5,24.6-56,55.1c-14.4,7.7-28.5,15-42.8,22c-12.3,6.1-15.5,13.7-15.8,26.5    c-1.5,62.1-3.9,124.2-6,186.3c-0.4,12.7-0.8,25.4-1.4,42.7c-13.2-7.5-21.8-13.5-31.2-17.6c-25.8-11.2-34.5-29.1-31.8-57.7    c4.2-43.6,3.7-87.6,5.3-135.5c-13.7,6.9-23.3,13-33.7,16.7c-20.9,7.4-27,21.3-26.6,43c0.6,38.4-0.9,76.9-3.8,115.1    c-1.6,21.2,3,34.8,23.2,45.1c25.3,13,48.7,29.8,73,44.8c25.3,15.7,50.7,31.3,79.7,49.2c0.5-13.7,0.8-22.5,1-31.2    c2.7-79.2,7.1-158.5,7.1-237.7c0-29.9,6.4-50.5,31.3-62.7c8.4,5,18.2,7.9,28.6,7.9c30.9,0,56-25.1,56-56S401.9,409,371,409z     M371,496c-0.2,0-0.3,0-0.4,0h0c-16.9-0.2-30.5-14-30.5-31c0-6.3,1.9-12.1,5.1-17c0,0,0,0,0,0c5.5-8.4,15.1-14,25.9-14h0.1    c2.9,0,5.6,0.4,8.3,1.1c13,3.7,22.6,15.7,22.6,29.9C402,482.1,388.1,496,371,496z"></path><path d="M462,307c-11,0-21.2,3.2-29.9,8.7c-10.7-6.9-21.1-13.8-31.5-20.8c-11.3-7.7-19.6-6.8-30.9-0.8    c-54.8,29.2-110.1,57.5-165.3,86.1c-11.3,5.9-22.5,11.7-37.9,19.7c0.1-15.2,1.1-25.6,0.1-35.8c-2.9-27.9,8.4-44.4,34.7-56    c40-17.7,78.1-39.7,120.7-61.8c-12.7-8.6-22.7-13.9-31.1-21.2c-16.7-14.6-31.8-13.1-50.5-2.1c-33.1,19.4-67.4,36.9-102.2,53.1    c-19.2,9-28.9,19.7-28,42.3c1.1,28.5-2.1,57-3.3,85.6c-1.3,29.8-2.4,59.6-3.8,93.6c12.1-6.3,19.9-10.3,27.7-14.4    c70.3-36.5,141.6-71.5,210.6-110.4c24-13.5,43.7-18.4,64.5-6.9v0c1.4,29.6,26,53.3,55.9,53.3c30.9,0,56-25.1,56-56    S492.9,307,462,307z M492.9,365.8c-1.4,15.8-14.7,28.2-30.9,28.2c-8.3,0-15.9-3.3-21.5-8.7c-5.9-5.6-9.5-13.6-9.5-22.3    c0-15.8,11.8-28.8,27.1-30.8c1.3-0.2,2.6-0.3,3.9-0.3c13.7,0,25.4,9,29.5,21.4c1,3,1.5,6.3,1.5,9.6    C493,363.9,493,364.9,492.9,365.8z"></path></g><path d="M677,824.7c-67.8-41.2-134.6-83.9-203.7-122.7c-25.9-14.6-40.7-30.1-39.3-57.4c18.8-9,31.8-28.3,31.8-50.5   c0-30.9-25.1-56-56-56s-56,25.1-56,56c0,19.1,9.6,35.9,24.2,46c-0.4,17.7-0.9,34.8-1.8,51.8c-0.7,13.7,4.3,20.3,15.3,26.8   c53.4,31.7,106.3,64.3,159.4,96.5c10.8,6.6,21.7,13.2,36.5,22.2c-13,7.8-22.5,12.3-30.6,18.5c-22.4,17-42.3,15.8-65.9-0.6   c-35.9-25-74.5-46.1-115.5-71c-0.7,15.3-0.1,26.7-2,37.6c-3.8,21.8,5.3,33.9,24.4,44.3c33.7,18.3,66.5,38.5,98.5,59.8   c17.7,11.8,31.8,14.4,50.7,1.9c23.8-15.7,49.9-27.8,74.9-41.6c26.1-14.4,52.2-28.8,82-45.3C692,833.8,684.5,829.2,677,824.7z    M409.8,625.1c-16.7,0-30.4-13.3-31-29.9v0c0-0.4,0-0.7,0-1.1c0-0.7,0-1.3,0.1-2c0,0,0-0.1,0-0.1v-0.1c0.5-6.6,3-12.6,6.9-17.4   c5.7-7,14.3-11.4,24-11.4c17.1,0,31,13.9,31,31c0,7.4-2.6,14.3-7,19.6C428,620.7,419.4,625.1,409.8,625.1z"></path><path d="M896.8,489.8c-11.9,6.7-19.6,11-27.2,15.3c-69.1,38.9-139.1,76.2-206.8,117.4c-24.6,15-44.9,20.4-67.3,7.4   c0.2-1.9,0.3-3.8,0.3-5.8c0-30.9-25.1-56-56-56s-56,25.1-56,56c0,30.9,25.1,56,56,56c8,0,15.6-1.7,22.5-4.7h0   c15.1,9,29.7,17.8,44.1,26.9c11.6,7.3,19.8,6.2,30.9-0.2c53.8-31,108.1-61.2,162.3-91.6c11.1-6.2,22.1-12.5,37.2-20.9   c0.4,15.2-0.3,25.6,1.1,35.8c3.8,27.8-6.9,44.6-32.8,57.2c-39.4,19.1-76.7,42.3-118.5,65.9c13,8.1,23.2,13.2,31.8,20.2   c17.2,14,32.2,12,50.5,0.4c32.4-20.5,66.1-39.2,100.4-56.5c18.9-9.6,28.2-20.7,26.5-43.2c-2-28.4,0.2-57.1,0.4-85.7   C896.4,553.6,896.5,523.8,896.8,489.8z M539.8,655.1c-13.2,0-24.5-8.3-29-20c-1.3-3.4-2-7.1-2-11c0-17.1,13.9-31,31-31   c13.7,0,25.4,9,29.5,21.3c1,3,1.5,6.3,1.5,9.7C570.8,641.2,556.8,655.1,539.8,655.1z"></path><path d="M865.9,397.8c-1.9-38.3-1.7-76.8-0.1-115.2c0.9-21.2-4.2-34.7-24.7-44.3c-25.8-12.1-49.7-28.1-74.5-42.4   c-25.8-14.9-51.8-29.6-81.3-46.5c0,13.7,0,22.5,0,31.3c0,79.3-1.8,158.6,0.9,237.8c1,28-4,48-24.7,61.1c-8.2-4.7-17.8-7.5-27.9-7.5   c-30.9,0-56,25.1-56,56c0,30.9,25.1,56,56,56c30.9,0,56-25.1,56-55.9c12.9-7.4,25.6-14.6,38.5-21.4c12.1-6.5,15.1-14.2,14.9-27   c-0.6-62.1-0.3-124.2-0.3-186.3v-42.7c13.4,7.1,22.2,12.8,31.7,16.5c26.1,10.3,35.5,27.9,33.7,56.6c-2.7,43.7-0.7,87.6-0.7,135.6   c13.4-7.3,22.8-13.8,33.2-17.8C861.4,433.5,867,419.4,865.9,397.8z M659.1,545.9c-5.1,7.2-13.1,12.1-22.3,13c-1,0.1-2,0.1-3,0.1   c-3.9,0-7.6-0.7-11-2c-11.7-4.4-20-15.8-20-29c0-16.6,13.1-30.2,29.5-31h0c0.5,0,1,0,1.5,0c17.1,0,31,13.9,31,31   C664.8,534.7,662.7,540.9,659.1,545.9z"></path><path d="M627.3,356.9c0.9-14.9,1.9-29.5,3.1-44c1.2-13.6-3.6-20.4-14.4-27.3c-52.3-33.5-104.1-67.8-156.1-101.8   c-10.6-7-21.3-13.9-35.7-23.4c13.3-7.4,22.9-11.6,31.2-17.5c23-16.2,42.8-14.4,65.9,2.8c35.1,26.2,72.9,48.6,113,74.9   c1.2-15.3,1-26.6,3.3-37.5c4.5-21.7-4.2-34.1-22.9-45c-33.1-19.4-65.2-40.7-96.4-63c-17.2-12.4-31.3-15.5-50.6-3.6   c-24.3,14.9-50.8,26.2-76.2,39.1c-26.6,13.5-53.1,27.1-83.4,42.5c11.4,7.5,18.8,12.3,26.2,17.1c66.3,43.4,131.7,88.4,199.5,129.5   c24.1,14.7,38.2,29.9,37.6,54.7c-17.9,9.3-30.2,28.1-30.2,49.7c0,30.9,25.1,56,56,56s56-25.1,56-56   C653,384.3,642.7,366.9,627.3,356.9z M624,419.3c-2.2,3.8-5.1,7.1-8.7,9.7c-5.1,3.8-11.5,6-18.3,6c-17.1,0-31-13.9-31-31   c0-5.6,1.5-10.8,4-15.3c5.3-9.4,15.4-15.7,27-15.7c12.7,0,23.6,7.6,28.4,18.6c1.7,3.8,2.6,8,2.6,12.4   C628,409.6,626.5,414.8,624,419.3z"></path></g></g><g id="SvgjsG3483" featurekey="nameFeature-0" transform="matrix(0.6253040719473705,0,0,0.6253040719473705,84.57118029101409,1.4887919760022772)" fill="#111111"><path d="M16.094 40.37109 c-7.832 0 -13.809 -5.3711 -13.809 -14.199 c0 -8.7891 5.9766 -14.16 13.809 -14.16 c5.5859 0 10.215 2.7734 12.344 7.5195 l-3.5938 1.4258 c-1.6016 -3.3789 -4.8633 -5.2734 -8.75 -5.2734 c-5.5469 0 -9.9414 3.8281 -9.9414 10.488 c0 6.6992 4.3945 10.527 9.9414 10.527 c3.8867 0 7.1484 -1.8945 8.75 -5.2734 l3.5938 1.4453 c-2.1289 4.7266 -6.7578 7.5 -12.344 7.5 z M41.42574375 36.4844 l9.4336 0 l0 3.5156 l-13.32 0 l0 -27.617 l3.8867 0 l0 24.102 z M59.433575 40 l0 -27.617 l3.8867 0 l0 27.617 l-3.8867 0 z M90.21484375 15.879000000000001 l-11.211 0 l0 8.5742 l9.7461 0 l0 3.4961 l-9.7461 0 l0 12.051 l-3.9648 0 l0 -27.617 l15.176 0 l0 3.4961 z M113.9450625 12.383 l0 3.4961 l-6.9922 0 l0 24.121 l-3.8477 0 l0 -24.121 l-7.0117 0 l0 -3.4961 l17.852 0 z M134.39478125 40.37109 c-7.832 0 -13.809 -5.3906 -13.809 -14.199 c0 -8.7891 5.9766 -14.16 13.809 -14.16 c7.793 0 13.789 5.3711 13.789 14.16 c0 8.8086 -5.9961 14.199 -13.789 14.199 z M134.39478125 36.7187 c5.5273 0 9.9023 -3.8281 9.9023 -10.547 c0 -6.6602 -4.375 -10.488 -9.9023 -10.488 c-5.5469 0 -9.9414 3.8281 -9.9414 10.488 c0 6.7188 4.3945 10.547 9.9414 10.547 z M176.58253125 12.383 l3.8672 0 l0 27.617 l-4.1992 0 l-14.434 -21.914 l0 21.914 l-3.8477 0 l0 -27.617 l4.1602 0 l14.453 21.816 l0 -21.816 z M220.742625 40 l-7.1484 -12.422 l-3.8672 0 l0 12.422 l-3.8867 0 l0 -27.617 l9.2969 0 c5.7813 0 8.418 3.5352 8.418 7.8711 c0 3.8477 -2.2656 6.5234 -6.0547 7.168 l7.793 12.578 l-4.5508 0 z M209.726525 15.742 l0 8.8672 l4.8828 0 c3.5938 0 5.2148 -1.7969 5.2148 -4.4141 c0 -2.5781 -1.6211 -4.4531 -5.2148 -4.4531 l-4.8828 0 z M246.15259375 40.37109 c-7.832 0 -13.809 -5.3906 -13.809 -14.199 c0 -8.7891 5.9766 -14.16 13.809 -14.16 c7.793 0 13.789 5.3711 13.789 14.16 c0 8.8086 -5.9961 14.199 -13.789 14.199 z M246.15259375 36.7187 c5.5273 0 9.9023 -3.8281 9.9023 -10.547 c0 -6.6602 -4.375 -10.488 -9.9023 -10.488 c-5.5469 0 -9.9414 3.8281 -9.9414 10.488 c0 6.7188 4.3945 10.547 9.9414 10.547 z M287.59734375 40 l-2.3047 -6.4453 l-12.344 0 l-2.3047 6.4453 l-4.043 0 l10.176 -27.617 l4.6875 0 l10.176 27.617 l-4.043 0 z M274.16014375 30.1562 l9.9219 0 l-4.9609 -13.926 z M300.214825 40 l0 -27.617 l9.1016 0 c8.4961 0 12.813 5.7031 12.813 13.789 c0 8.1445 -4.3164 13.828 -12.813 13.828 l-9.1016 0 z M304.101525 36.4844 l5.0586 0 c6.0352 0 8.9063 -4.0039 8.9063 -10.313 c0 -6.2695 -2.8711 -10.293 -8.9063 -10.293 l-5.0586 0 l0 20.605 z"></path></g><g id="SvgjsG3484" featurekey="nameFeature-1" transform="matrix(0.9243559455871757,0,0,0.9243559455871757,82.11816801046614,25.89692280275228)" fill="#111111"><path d="M14.844 12.383 c5.0586 0 8.3203 3.8281 8.3203 8.5547 c0 4.7852 -3.2617 8.4766 -8.3203 8.4766 l-6.7578 0 l0 10.586 l-3.8867 0 l0 -27.617 l10.645 0 z M14.258 26.055 c3.2422 0 5.0586 -2.0898 5.0586 -5.1758 c0 -2.9688 -1.8164 -5.1563 -5.0586 -5.1563 l-6.1719 0 l0 10.332 l6.1719 0 z M50.25359375 40 l-2.3047 -6.4453 l-12.344 0 l-2.3047 6.4453 l-4.043 0 l10.176 -27.617 l4.6875 0 l10.176 27.617 l-4.043 0 z M36.81639375 30.1562 l9.9219 0 l-4.9609 -13.926 z M77.773875 40 l-7.1484 -12.422 l-3.8672 0 l0 12.422 l-3.8867 0 l0 -27.617 l9.2969 0 c5.7813 0 8.418 3.5352 8.418 7.8711 c0 3.8477 -2.2656 6.5234 -6.0547 7.168 l7.793 12.578 l-4.5508 0 z M66.757775 15.742 l0 8.8672 l4.8828 0 c3.5938 0 5.2148 -1.7969 5.2148 -4.4141 c0 -2.5781 -1.6211 -4.4531 -5.2148 -4.4531 l-4.8828 0 z M105.99584375 12.383 l0 3.4961 l-6.9922 0 l0 24.121 l-3.8477 0 l0 -24.121 l-7.0117 0 l0 -3.4961 l17.852 0 z M133.1645625 12.383 l3.8672 0 l0 27.617 l-4.1992 0 l-14.434 -21.914 l0 21.914 l-3.8477 0 l0 -27.617 l4.1602 0 l14.453 21.816 l0 -21.816 z M163.75025 15.879000000000001 l-11.055 0 l0 8.5938 l9.7461 0 l0 3.4766 l-9.7461 0 l0 8.5352 l11.055 0 l0 3.5156 l-15.02 0 l0 -27.617 l15.02 0 l0 3.4961 z M188.53559375 40 l-7.1484 -12.422 l-3.8672 0 l0 12.422 l-3.8867 0 l0 -27.617 l9.2969 0 c5.7813 0 8.418 3.5352 8.418 7.8711 c0 3.8477 -2.2656 6.5234 -6.0547 7.168 l7.793 12.578 l-4.5508 0 z M177.51949375 15.742 l0 8.8672 l4.8828 0 c3.5938 0 5.2148 -1.7969 5.2148 -4.4141 c0 -2.5781 -1.6211 -4.4531 -5.2148 -4.4531 l-4.8828 0 z M210.7035625 40.37109 c-5.7617 0 -9.9805 -2.7539 -10.918 -7.4414 l3.9648 -0.9375 c0.625 3.2227 3.418 5.0781 7.0898 5.0781 c2.9492 0 5.7813 -1.2109 5.7227 -4.5313 c-0.039063 -3.2813 -3.5938 -4.1797 -7.3633 -5.2148 c-4.2773 -1.1719 -8.5547 -2.5195 -8.5547 -7.5977 c0 -5.1367 4.2383 -7.7148 9.2578 -7.7148 c4.8633 0 9.2383 2.0508 10.273 6.7969 l-3.7695 0.95703 c-0.68359 -3.0664 -3.2422 -4.4336 -6.3281 -4.4336 c-2.7734 0 -5.5273 1.2109 -5.5273 4.3555 c0 2.8516 3.0859 3.6914 6.582 4.6289 c4.3945 1.1914 9.4336 2.5586 9.4336 8.1055 c0 5.5859 -4.6875 7.9492 -9.8633 7.9492 z"></path></g></svg>